<?xml version="1.0" encoding="UTF-8" standalone="yes"?>
<svg xmlns="http://www.w3.org/2000/svg" xmlns:xlink="http://www.w3.org/1999/xlink" width="141.100067mm" height="109.646225mm" version="1.1" viewBox="-162.091110 154.357361 733.275940 569.815002">
  <!--
	Exported with Concepts: Smarter Sketching
	Version: 890 on iOS 14.3
	https://concepts.app/
	-->
  <title>Intility base 1</title>
  <desc>Drawing exported from Concepts: Smarter Sketching</desc>
  <g id="Base" opacity="1.000">
    <path id="STROKE_4e9806bc-164b-45fd-80ee-ec2bdf8a2ced" opacity="1.000" fill="none" stroke="#12f0d6" stroke-width="6.413" stroke-opacity="1.000" stroke-linecap="round" stroke-linejoin="round" d="M 319.025 621.252 Q 319.025 621.252 344.384 621.402 Q 369.743 621.551 394.935 624.935 Q 420.126 628.319 431.458 630.194 Q 442.789 632.069 467.630 636.091 Q 492.472 640.112 517.670 643.412 Q 542.868 646.712 550.067 647.635 L 557.266 648.557 L 558.875 627.792 Q 562.291 575.137 557.460 550.374 Q 552.628 525.610 544.707 501.567 Q 536.785 477.524 529.226 453.358 Q 521.667 429.191 520.830 425.731 Q 519.992 422.271 517.655 417.543 Q 515.318 412.816 509.419 411.253 Q 503.519 409.690 478.439 410.142 Q 453.359 410.594 428.165 411.330 Q 402.971 412.066 377.639 413.897 Q 352.308 415.728 343.051 416.825 Q 333.795 417.922 308.300 420.721 Q 282.805 423.520 257.780 420.210 Q 232.755 416.900 232.451 416.791 Q 232.147 416.682 209.611 405.280 Q 187.076 393.877 169.353 379.305 Q 151.629 364.732 130.420 347.776 Q 109.211 330.820 89.752 315.260 Q 70.294 299.700 52.408 283.894 Q 34.521 268.087 18.033 250.392 Q 1.545 232.697 -13.723 211.471 Q -28.990 190.244 -33.673 182.391 Q -38.356 174.538 -43.935 168.822 Q -49.513 163.106 -59.221 166.286 Q -68.929 169.466 -71.726 180.186 Q -74.522 190.906 -70.178 215.953 Q -65.833 241.000 -53.260 263.567 Q -40.688 286.134 -40.211 286.808 Q -39.734 287.482 -28.082 308.030 Q -16.430 328.577 -10.235 337.798 Q -4.041 347.019 -3.167 364.290 Q -2.294 381.561 -23.076 396.538 Q -43.858 411.515 -48.860 413.710 Q -53.861 415.905 -75.423 429.135 Q -96.984 442.366 -111.060 457.709 Q -125.136 473.052 -137.991 495.506 Q -150.847 517.961 -151.201 526.432 Q -151.555 534.903 -142.222 547.669 Q -132.890 560.434 -118.186 562.557 Q -103.481 564.679 -102.478 567.583 Q -101.474 570.487 -103.917 589.344 Q -106.361 608.201 -95.205 619.634 Q -84.048 631.066 -73.336 630.790 Q -62.624 630.514 -56.838 652.589 Q -51.053 674.664 -37.498 682.104 Q -23.942 689.544 -18.356 698.333 Q -12.771 707.122 12.392 710.489 Q 37.554 713.856 38.972 713.163 Q 40.391 712.469 61.927 699.433 Q 83.463 686.396 87.052 684.422 Q 90.641 682.447 115.100 676.939 Q 139.559 671.431 149.381 670.625 Q 159.204 669.819 184.238 666.355 Q 209.272 662.891 228.228 656.860 Q 247.183 650.830 268.881 640.306 Q 290.579 629.781 304.802 625.517 Q 319.025 621.252 319.025 621.252 Z"></path>
  </g>
</svg>